HIERARCHY
ROOT Hips
{
	OFFSET 0.00 0.00 0.00
	CHANNELS 6 Xposition Yposition Zposition Xrotation Yrotation Zrotation
	JOINT LeftUpLeg
	{
		OFFSET 3.10215 0.00000 0.00000
		CHANNELS 3 Xrotation Yrotation Zrotation
		JOINT LeftLeg
		{
			OFFSET 0.00000 -16.83331 0.00000
			CHANNELS 3 Xrotation Yrotation Zrotation
			JOINT LeftFoot
			{
				OFFSET 0.00000 -15.53879 0.00000
				CHANNELS 3 Xrotation Yrotation Zrotation
				JOINT LeftToeBase
				{
					OFFSET 0.00000 -1.57366 5.87297
					CHANNELS 3 Xrotation Yrotation Zrotation
					End Site
					{
						OFFSET 0.00000 0.00000 2.95275
					}
				}
			}
		}
	}
	JOINT RightUpLeg
	{
		OFFSET -3.10215 0.00000 0.00000
		CHANNELS 3 Xrotation Yrotation Zrotation
		JOINT RightLeg
		{
			OFFSET 0.00000 -16.83331 0.00000
			CHANNELS 3 Xrotation Yrotation Zrotation
			JOINT RightFoot
			{
				OFFSET 0.00000 -15.53879 0.00000
				CHANNELS 3 Xrotation Yrotation Zrotation
				JOINT RightToeBase
				{
					OFFSET 0.00000 -1.57366 5.87297
					CHANNELS 3 Xrotation Yrotation Zrotation
					End Site
					{
						OFFSET 0.00000 0.00000 2.95275
					}
				}
			}
		}
	}
	JOINT Spine
	{
		OFFSET 0.00000 0.03937 0.00000
		CHANNELS 3 Xrotation Yrotation Zrotation
		JOINT Spine1
		{
			OFFSET 0.00000 8.31046 0.00000
			CHANNELS 3 Xrotation Yrotation Zrotation
			JOINT Neck
			{
				OFFSET 0.00000 6.25463 0.00000
				CHANNELS 3 Xrotation Yrotation Zrotation
				JOINT Head
				{
					OFFSET 0.00000 8.60817 0.00000
					CHANNELS 3 Xrotation Yrotation Zrotation
					End Site
					{
						OFFSET 0.00000 4.52755 0.00000
					}
				}
			}
			JOINT LeftShoulder
			{
				OFFSET 0.00000 6.25463 0.00000
				CHANNELS 3 Xrotation Yrotation Zrotation
				JOINT LeftArm
				{
					OFFSET 7.44857 -0.00003 0.00000
					CHANNELS 3 Xrotation Yrotation Zrotation
					JOINT LeftForeArm
					{
						OFFSET 10.73545 -0.00004 0.00000
						CHANNELS 3 Xrotation Yrotation Zrotation
						JOINT LeftHand
						{
							OFFSET 10.15840 -0.00004 0.00000
							CHANNELS 3 Xrotation Yrotation Zrotation
							JOINT LeftHandThumb
							{
								OFFSET 0.00000 0.00000 0.00000
								CHANNELS 3 Xrotation Yrotation Zrotation
								End Site
								{
									OFFSET 0.00000 0.00000 3.93700
								}
							}
							JOINT L_Wrist_End
							{
								OFFSET 3.93700 -0.00001 0.00000
								CHANNELS 3 Xrotation Yrotation Zrotation
							}
						}
					}
				}
			}
			JOINT RightShoulder
			{
				OFFSET 0.00000 6.25463 0.00000
				CHANNELS 3 Xrotation Yrotation Zrotation
				JOINT RightArm
				{
					OFFSET -7.44857 -0.00003 0.00000
					CHANNELS 3 Xrotation Yrotation Zrotation
					JOINT RightForeArm
					{
						OFFSET -10.73545 -0.00004 0.00000
						CHANNELS 3 Xrotation Yrotation Zrotation
						JOINT RightHand
						{
							OFFSET -10.15840 -0.00004 0.00000
							CHANNELS 3 Xrotation Yrotation Zrotation
							JOINT RightHandThumb
							{
								OFFSET 0.00000 0.00000 0.00000
								CHANNELS 3 Xrotation Yrotation Zrotation
								End Site
								{
									OFFSET 0.00000 0.00000 3.93700
								}
							}
							JOINT R_Wrist_End
							{
								OFFSET -5.39369 -0.00002 0.00000
								CHANNELS 3 Xrotation Yrotation Zrotation
							}
						}
					}
				}
			}
		}
	}
}
MOTION
Frames: 11
Frame Time: 0.008333
 -134.1725 31.3421 -8.8453 166.1995 75.0846 -169.9519 -12.5035 8.6695 4.5166 46.7638 -0.0000 0.0000 -35.9022 0.4703 -24.8511 -3.5070 -0.0000 0.0000 -48.7948 -6.4308 -3.0999 71.3300 -0.0000 0.0000 -18.6452 -2.8440 -0.8239 2.4767 0.0000 -0.0000 -4.4962 -2.7515 -0.9864 6.5990 -3.6931 0.5184 20.8607 9.4006 4.7786 -16.3066 -18.7315 0.8170 15.3194 -13.7742 24.6356 -45.2561 -5.2257 -74.1080 -179.9941 -87.9600 -179.9939 -21.6600 -4.7056 -4.3241 0.0000 -0.0000 0.0000 0.0000 -0.0000 0.0000 24.9677 -8.0209 -18.4683 10.3547 17.2105 88.7038 -0.0002 42.7101 0.0001 -43.1546 21.6121 28.2256 -0.0000 -0.0000 -0.0000 -0.0000 -0.0000 -0.0000
 -134.0590 31.3891 -8.8225 165.4701 75.4844 -169.8074 -12.4675 8.8881 5.2659 46.6768 -0.0000 0.0000 -35.7481 0.4083 -25.0692 -3.8090 -0.0000 -0.0000 -48.7803 -6.8383 -2.5387 70.4517 -0.0000 0.0000 -18.1813 -3.1842 -1.0339 2.3843 -0.0000 -0.0000 -4.5016 -2.9510 -0.7664 6.5131 -3.7811 0.8414 20.8992 9.3316 4.7648 -16.3098 -18.3303 0.7666 15.2932 -13.7792 24.7117 -46.6458 -4.8219 -73.1383 -179.9949 -87.6149 -179.9947 -21.4615 -4.7844 -4.1700 -0.0000 0.0000 -0.0000 -0.0000 0.0000 -0.0000 25.1865 -8.0784 -18.5703 11.1820 17.4821 88.4452 -0.0002 43.0374 0.0001 -43.4370 21.2140 28.3501 -0.0000 -0.0000 -0.0000 -0.0000 -0.0000 -0.0000
 -133.9497 31.4336 -8.8395 164.8974 76.0865 -169.2321 -12.1017 9.3660 5.3345 46.3302 0.0000 0.0000 -35.4207 0.4550 -25.1393 -4.2063 -0.0000 0.0000 -48.8132 -6.7176 -2.3577 69.7321 -0.0000 0.0000 -17.8946 -3.3557 -1.0642 2.3244 0.0000 0.0000 -4.5483 -2.9152 -0.8247 6.6457 -3.7359 0.8676 20.7924 9.4151 4.7316 -16.3434 -18.2187 0.8224 15.0741 -13.9355 24.9282 -47.9061 -4.3240 -72.2560 -179.9955 -87.3273 -179.9953 -21.3465 -4.8623 -4.3309 -0.0000 0.0000 -0.0000 -0.0000 0.0000 -0.0000 25.0690 -8.0762 -18.7462 12.2765 17.6089 88.3426 -0.0002 43.3542 0.0001 -43.6496 21.1919 28.6610 0.0000 0.0000 0.0000 0.0000 0.0000 0.0000
 -133.8345 31.4840 -8.8525 164.2782 76.6653 -168.6197 -11.7168 9.8484 5.4213 45.9246 -0.0000 0.0000 -35.0825 0.4907 -25.1579 -4.5388 0.0000 0.0000 -48.8166 -6.6399 -2.1623 68.9761 0.0000 0.0000 -17.6670 -3.5248 -1.2692 2.2567 -0.0000 -0.0000 -4.5422 -2.9359 -0.8868 6.6232 -3.7482 0.8833 20.8037 9.4973 4.7494 -16.4069 -17.9849 0.7597 15.0234 -13.9660 25.0891 -49.2449 -3.9481 -71.3268 -179.9958 -87.1074 -179.9956 -21.3165 -4.9441 -4.2065 -0.0000 0.0000 -0.0000 -0.0000 0.0000 -0.0000 25.2250 -8.2022 -18.8459 13.1125 17.9470 88.0691 -0.0002 43.7423 0.0001 -43.8417 21.0406 28.6376 -0.0000 -0.0000 0.0000 -0.0000 -0.0000 0.0000
 -133.7135 31.5389 -8.8640 163.5840 77.2418 -167.9406 -11.3064 10.3176 5.5083 45.4743 -0.0000 0.0000 -34.7121 0.5424 -25.2993 -4.8507 -0.0000 0.0000 -48.7873 -6.5687 -1.9487 68.1834 -0.0000 0.0000 -17.4735 -3.6343 -1.4697 2.1627 -0.0000 -0.0000 -4.5255 -2.9711 -0.9246 6.5788 -3.7767 0.8930 20.8113 9.6481 4.7100 -16.4523 -17.8290 0.7469 14.9251 -13.9803 25.2335 -50.4852 -3.5789 -70.3983 -179.9961 -86.9339 -179.9959 -21.3891 -5.0493 -4.3057 -0.0000 0.0000 -0.0000 -0.0000 0.0000 -0.0000 25.5587 -8.4872 -18.9222 13.6538 18.3549 87.7595 -0.0002 44.0684 0.0001 -43.9949 20.8820 28.7118 -0.0000 0.0000 0.0000 -0.0000 0.0000 0.0000
 -133.5871 31.5989 -8.8743 162.8129 77.8020 -167.1896 -10.8659 10.7544 5.5800 44.9629 0.0000 -0.0000 -34.3104 0.6081 -25.4199 -5.1711 -0.0000 -0.0000 -48.7234 -6.5040 -1.7272 67.3291 -0.0000 0.0000 -17.2529 -3.7068 -1.5170 2.1228 0.0000 -0.0000 -4.5095 -3.0021 -0.9604 6.5208 -3.8016 0.8993 20.8360 9.7997 4.6789 -16.5019 -17.6699 0.7496 14.7988 -14.0205 25.3708 -51.6613 -3.2858 -69.4938 -179.9962 -86.8352 -179.9960 -21.4623 -5.2478 -4.2132 0.0000 -0.0000 -0.0000 0.0000 -0.0000 -0.0000 25.7692 -8.6604 -19.0259 14.3297 18.6499 87.5018 -0.0002 44.3246 0.0001 -44.2344 20.7350 28.8791 -0.0000 0.0000 -0.0000 -0.0000 0.0000 -0.0000
 -133.4573 31.6640 -8.8867 161.9507 78.3518 -166.3536 -10.4064 11.1469 5.6325 44.4139 -0.0000 0.0000 -33.8543 0.6951 -25.5863 -5.5314 0.0000 0.0000 -48.6308 -6.4508 -1.5056 66.4161 -0.0000 0.0000 -16.9421 -3.7139 -1.5335 2.1328 -0.0000 -0.0000 -4.4894 -3.0224 -0.9771 6.4342 -3.8169 0.9026 20.8725 9.9552 4.6466 -16.5242 -17.5479 0.7604 14.6757 -14.1180 25.4911 -52.7798 -3.0175 -68.5760 -179.9963 -86.7818 -179.9960 -21.4812 -5.4145 -4.1218 0.0000 -0.0000 -0.0000 0.0000 -0.0000 -0.0000 25.8123 -8.6970 -19.1937 15.1839 18.8220 87.3219 -0.0002 44.4925 0.0001 -44.5021 20.5479 28.9898 -0.0000 0.0000 -0.0000 -0.0000 0.0000 -0.0000
 -133.3066 31.7358 -8.8984 161.1163 78.7747 -165.5269 -9.8754 11.3882 5.6299 43.7778 0.0000 -0.0000 -33.5016 0.8784 -25.6809 -4.3484 0.0000 -0.0000 -48.4843 -6.5064 -1.3897 65.4714 -0.0000 0.0000 -16.6499 -3.6759 -1.3785 2.4932 -0.0000 -0.0000 -4.5946 -3.1108 -1.0242 6.4794 -3.8965 0.9282 20.9448 10.1871 4.5444 -16.6595 -17.4776 0.7860 14.4853 -14.1921 25.5424 -53.8405 -2.8766 -67.6314 -179.9963 -86.7860 -179.9960 -21.3707 -5.4048 -4.0196 -0.0000 -0.0000 0.0000 -0.0000 -0.0000 0.0000 26.0754 -8.9029 -19.2581 15.8384 19.0582 86.9949 -0.0002 44.8298 0.0001 -44.6170 20.4469 29.1711 -0.0000 -0.0000 0.0000 -0.0000 -0.0000 0.0000
 -133.1647 31.8096 -8.9096 160.1663 79.2034 -164.5999 -9.3825 11.5986 5.6239 43.1502 0.0000 -0.0000 -32.9556 1.0149 -25.8738 -4.8345 0.0000 0.0000 -48.3380 -6.5464 -1.2452 64.4610 -0.0000 0.0000 -16.1436 -3.6015 -1.1554 2.5235 0.0000 0.0000 -4.5991 -3.1829 -1.0422 6.3877 -3.9588 0.9557 21.0096 10.3540 4.4745 -16.7017 -17.3809 0.7802 14.2912 -14.3526 25.6544 -54.7488 -2.6193 -66.7736 -179.9963 -86.7706 -179.9961 -21.1941 -5.5060 -3.8323 -0.0000 -0.0000 0.0000 -0.0000 -0.0000 0.0000 26.2536 -9.0542 -19.3937 16.5090 19.2319 86.7717 -0.0002 44.9971 0.0001 -44.9239 20.2965 29.4216 0.0000 -0.0000 -0.0000 0.0000 -0.0000 -0.0000
 -133.0181 31.8881 -8.9192 159.1622 79.5840 -163.6331 -8.8857 11.7386 5.6150 42.4982 -0.0000 0.0000 -32.3643 1.1763 -26.0657 -5.3193 0.0000 0.0000 -48.1671 -6.6331 -1.1059 63.4109 0.0000 0.0000 -15.5130 -3.5118 -1.0755 2.4537 -0.0000 -0.0000 -4.6147 -3.2548 -1.0477 6.3056 -4.0214 0.9806 21.0540 10.4913 4.4160 -16.7016 -17.2764 0.7899 14.2174 -14.4450 25.7683 -55.7901 -2.4602 -65.9515 -179.9962 -86.8078 -179.9960 -21.0018 -5.5760 -3.6278 -0.0000 0.0000 -0.0000 -0.0000 0.0000 -0.0000 26.4181 -9.2271 -19.4972 17.1511 19.4095 86.5437 -0.0002 45.1249 0.0001 -45.2639 20.0617 29.5240 -0.0000 0.0000 0.0000 -0.0000 0.0000 0.0000
 -132.8939 31.9597 -8.9261 158.7717 79.7227 -163.2371 -8.5359 11.5506 5.5213 42.1894 -0.0000 0.0000 -31.8785 1.3626 -25.6499 -4.4206 -0.0000 -0.0000 -48.0161 -6.9001 -1.1907 62.3254 -0.0000 0.0000 -14.4979 -3.4579 -1.0675 1.5944 0.0000 0.0000 -4.4829 -3.4316 -1.0689 6.2341 -4.1940 0.9771 20.8230 10.5535 4.4272 -16.3607 -16.9979 0.7879 13.6987 -14.5935 26.0435 -56.4320 -2.2029 -65.3553 -179.9960 -86.9590 -179.9958 -20.7919 -5.6903 -3.7461 0.0000 -0.0000 0.0000 0.0000 -0.0000 0.0000 26.4438 -9.5354 -19.6356 17.7692 19.6469 86.3620 -0.0002 45.2944 0.0001 -45.2528 20.3887 29.3855 -0.0000 0.0000 0.0000 -0.0000 0.0000 0.0000
